#Exported from google sketchup
mtllib platform.mtl
v 16.320000 0.000000 22.500000
v 0.000000 0.000000 0.000000
v 0.000000 0.000000 22.500000
v 16.320000 0.000000 0.000000
v 16.320000 5.780000 11.881743
v 14.373416 5.780000 22.500000
v 14.373416 5.780000 11.881743
v 16.320000 5.780000 22.500000
v 16.320000 5.780000 0.000000
v 0.000000 0.000000 0.000000
v 16.320000 0.000000 0.000000
v 0.000000 5.780000 0.000000
v 14.373416 5.780000 0.000000
v 2.095053 5.780000 0.000000
v 0.000000 5.780000 22.500000
v 0.000000 0.000000 0.000000
v 0.000000 5.780000 0.000000
v 0.000000 0.000000 22.500000
v 0.000000 5.780000 22.500000
v 16.320000 0.000000 22.500000
v 0.000000 0.000000 22.500000
v 16.320000 5.780000 22.500000
v 2.095053 5.780000 22.500000
v 14.373416 5.780000 22.500000
v 16.320000 0.000000 22.500000
v 16.320000 5.780000 0.000000
v 16.320000 0.000000 0.000000
v 16.320000 5.780000 11.881743
v 16.320000 5.780000 22.500000
v 2.095053 5.780000 0.000000
v 0.000000 5.780000 22.500000
v 0.000000 5.780000 0.000000
v 2.095053 5.780000 22.500000
v 2.095053 5.780000 2.452369
v 16.320000 5.780000 0.000000
v 14.373416 5.780000 2.452369
v 14.373416 5.780000 0.000000
v 14.373416 5.780000 11.881743
v 16.320000 5.780000 11.881743
v 13.158292 5.780000 3.516276
v 3.118292 5.780000 21.616276
v 3.118292 5.780000 3.516276
v 13.158292 5.780000 21.616276
v 2.095053 5.780000 2.452369
v 3.118292 5.780000 3.516276
v 2.095053 5.780000 22.500000
v 14.373416 5.780000 2.452369
v 13.158292 5.780000 3.516276
v 13.158292 5.780000 21.616276
v 3.118292 5.780000 21.616276
v 14.373416 5.780000 22.500000
v 14.373416 5.780000 11.881743
v 2.095053 5.780000 2.452369
v 2.095053 5.780000 0.000000
v 14.373416 5.780000 2.452369
# 55 elements
vt 0.000000 0.000000 0.0000
vt 0.000000 0.000000 0.0000
vt 0.000000 0.000000 0.0000
vt 0.000000 0.000000 0.0000
vt 6.386432 -0.000000 0.0000
vt 0.000000 -34.836802 0.0000
vt 0.000000 -0.000000 0.0000
vt 6.386432 -34.836802 0.0000
vt 53.543307 -18.963255 0.0000
vt 0.000000 -0.000000 0.0000
vt 53.543307 -0.000000 0.0000
vt 0.000000 -18.963255 0.0000
vt 47.156875 -18.963255 0.0000
vt 6.873534 -18.963255 0.0000
vt 0.000000 -18.963255 0.0000
vt 73.818898 -0.000000 0.0000
vt 73.818898 -18.963255 0.0000
vt 0.000000 -0.000000 0.0000
vt 53.543307 -18.963255 0.0000
vt 0.000000 -0.000000 0.0000
vt 53.543307 -0.000000 0.0000
vt 0.000000 -18.963255 0.0000
vt 46.669773 -18.963255 0.0000
vt 6.386432 -18.963255 0.0000
vt 73.818898 -0.000000 0.0000
vt 0.000000 -18.963255 0.0000
vt 0.000000 -0.000000 0.0000
vt 38.982095 -18.963255 0.0000
vt 73.818898 -18.963255 0.0000
vt 6.873534 -0.000000 0.0000
vt 0.000000 -73.818898 0.0000
vt 0.000000 -0.000000 0.0000
vt 6.873534 -73.818898 0.0000
vt 6.873534 -8.045830 0.0000
vt 2.947584 -0.000000 0.0000
vt 0.000000 -3.713460 0.0000
vt 0.000000 -0.000000 0.0000
vt 0.000000 -17.991736 0.0000
vt 2.947584 -17.991736 0.0000
vt 32.939633 -0.000000 0.0000
vt 0.000000 -59.383202 0.0000
vt 0.000000 -0.000000 0.0000
vt 32.939633 -59.383202 0.0000
vt 0.000000 -0.000000 0.0000
vt 4.028501 -4.188611 0.0000
vt 0.000000 -78.927681 0.0000
vt 48.340009 -0.000000 0.0000
vt 43.556060 -4.188611 0.0000
vt 43.556060 -75.448453 0.0000
vt 4.028501 -75.448453 0.0000
vt 48.340009 -78.927681 0.0000
vt 48.340009 -37.123518 0.0000
vt 3.713460 -18.592311 0.0000
vt 0.000000 -18.592311 0.0000
vt 3.713460 -0.000000 0.0000
# 55 elements
vn 0.000000 -1.000000 0.000000
vn 0.000000 1.000000 0.000000
vn -0.000000 -0.000000 -1.000000
vn -1.000000 0.000000 0.000000
vn 0.000000 0.000000 1.000000
vn 1.000000 0.000000 0.000000
# 6 elements
#  38 faces
usemtl Default_Material
f 3/3/1 2/2/1 1/1/1
f 4/4/1 1/1/1 2/2/1
f 1/1/2 2/2/2 3/3/2
f 2/2/2 1/1/2 4/4/2
usemtl __Asphalt_New__Asphalt_New_jpg
f 7/7/2 6/6/2 5/5/2
f 8/8/2 5/5/2 6/6/2
usemtl __Concrete_Aggregate_Smoke__Concrete_Aggregate_Smoke_jpg
f 11/11/3 10/10/3 9/9/3
f 12/12/3 9/9/3 10/10/3
f 13/13/3 9/9/3 12/12/3
f 14/14/3 13/13/3 12/12/3
f 17/17/4 16/16/4 15/15/4
f 18/18/4 15/15/4 16/16/4
f 21/21/5 20/20/5 19/19/5
f 22/22/5 19/19/5 20/20/5
f 23/23/5 19/19/5 22/22/5
f 24/24/5 23/23/5 22/22/5
f 27/27/6 26/26/6 25/25/6
f 28/28/6 25/25/6 26/26/6
f 29/29/6 25/25/6 28/28/6
usemtl __Carpet_Plush_Charcoal__Carpet_Plush_Charcoal_jpg
f 32/32/2 31/31/2 30/30/2
f 33/33/2 30/30/2 31/31/2
f 34/34/2 30/30/2 33/33/2
usemtl __Concrete_Scored_Jointless__Concrete_Scored_Jointless_jpg
f 37/37/2 36/36/2 35/35/2
f 38/38/2 35/35/2 36/36/2
f 39/39/2 35/35/2 38/38/2
usemtl __Concrete_Aggregate_Smoke__Concrete_Aggregate_Smoke_jpg
f 42/42/2 41/41/2 40/40/2
f 43/43/2 40/40/2 41/41/2
usemtl __Stone_Granite_Midnite__Stone_Granite_Midnite_jpg
f 46/46/2 45/45/2 44/44/2
f 47/47/2 44/44/2 45/45/2
f 48/48/2 47/47/2 45/45/2
f 49/49/2 47/47/2 48/48/2
f 51/51/2 50/50/2 46/46/2
f 45/45/2 46/46/2 50/50/2
f 49/49/2 50/50/2 51/51/2
f 47/47/2 49/49/2 51/51/2
f 52/52/2 47/47/2 51/51/2
usemtl __Concrete_Scored_Jointless__Concrete_Scored_Jointless_jpg
f 54/54/2 53/53/2 37/37/2
f 55/55/2 37/37/2 53/53/2