#Exported from google sketchup
mtllib platformmodel.mtl
v 1789.481216 255.260000 0.000000
v 0.000000 0.000000 0.000000
v 1789.481216 0.000000 0.000000
v 0.000000 255.260000 0.000000
v 0.000000 255.260000 870.000001
v 1789.481216 0.000000 870.000001
v 0.000000 0.000000 870.000001
v 1789.481216 255.260000 870.000001
v 0.000000 255.260000 418.517729
v 0.000000 0.000000 0.000000
v 0.000000 255.260000 0.000000
v 0.000000 0.000000 870.000001
v 0.000000 255.260000 870.000001
v 1789.481216 0.000000 870.000001
v 0.000000 0.000000 0.000000
v 0.000000 0.000000 870.000001
v 1789.481216 0.000000 0.000000
v 1789.481216 255.260000 0.000000
v 0.000000 255.260000 418.517729
v 0.000000 255.260000 0.000000
v 1789.481216 255.260000 870.000001
v 0.000000 255.260000 870.000001
v 1789.481216 255.260000 518.417166
v 1789.481216 255.260000 639.208583
v 0.000000 255.260000 418.517729
v 1789.481216 255.260000 0.000000
v 0.000000 255.260000 870.000001
v 1789.481216 255.260000 870.000001
v 1789.481216 255.260000 518.417166
v 1789.481216 255.260000 639.208583
v 1789.481216 0.000000 870.000001
v 1789.481216 255.260000 0.000000
v 1789.481216 255.260000 518.417166
v 1789.481216 255.260000 639.208583
v 1789.481216 255.260000 870.000001
# 35 elements
vt 5871.001360 -837.467192 0.0000
vt 0.000000 -0.000000 0.0000
vt 5871.001360 -0.000000 0.0000
vt 0.000000 -837.467192 0.0000
vt 5871.001360 -837.467192 0.0000
vt 0.000000 -0.000000 0.0000
vt 5871.001360 -0.000000 0.0000
vt 0.000000 -837.467192 0.0000
vt 1481.241047 -837.467192 0.0000
vt 2854.330709 -0.000000 0.0000
vt 2854.330709 -837.467192 0.0000
vt 0.000000 -0.000000 0.0000
vt 0.000000 -837.467192 0.0000
vt 0.000000 -2854.330709 0.0000
vt 5871.001360 -0.000000 0.0000
vt 5871.001360 -2854.330709 0.0000
vt 0.000000 -0.000000 0.0000
vt 1.000001 -0.000000 0.0000
vt 0.000000 -0.481055 0.0000
vt 0.000000 -0.000000 0.0000
vt 1.000001 -1.000000 0.0000
vt 0.000000 -1.000000 0.0000
vt 1.000001 -0.595882 0.0000
vt 1.000001 -0.734723 0.0000
vt 0.000000 -1373.089662 0.0000
vt 5871.001360 -0.000000 0.0000
vt 0.000000 -2854.330709 0.0000
vt 5871.001360 -2854.330709 0.0000
vt 5871.001360 -1700.843718 0.0000
vt 5871.001360 -2097.141019 0.0000
vt 2854.330709 -0.000000 0.0000
vt 0.000000 -837.467192 0.0000
vt 1700.843718 -837.467192 0.0000
vt 2097.141019 -837.467192 0.0000
vt 2854.330709 -837.467192 0.0000
# 35 elements
vn 0.000000 0.000000 -1.000000
vn 0.000000 0.000000 1.000000
vn -0.000000 -0.000000 -1.000000
vn -1.000000 0.000000 -0.000000
vn 1.000000 -0.000000 0.000000
vn 0.000000 -1.000000 0.000000
vn 0.000000 1.000000 0.000000
vn 1.000000 0.000000 0.000000
vn -1.000000 0.000000 0.000000
# 9 elements
#  36 faces
usemtl __Concrete_Aggregate_Smoke__Concrete_Aggregate_Smoke_jpg
f 3/3/1 2/2/1 1/1/1
f 4/4/1 1/1/1 2/2/1
f 1/1/2 2/2/2 3/3/2
f 2/2/2 1/1/2 4/4/2
f 7/7/2 6/6/2 5/5/2
f 8/8/2 5/5/2 6/6/2
f 5/5/3 6/6/3 7/7/3
f 6/6/3 5/5/3 8/8/3
f 11/11/4 10/10/4 9/9/4
f 12/12/4 9/9/4 10/10/4
f 13/13/4 9/9/4 12/12/4
f 9/9/5 10/10/5 11/11/5
f 10/10/5 9/9/5 12/12/5
f 12/12/5 9/9/5 13/13/5
f 16/16/6 15/15/6 14/14/6
f 17/17/6 14/14/6 15/15/6
f 14/14/7 15/15/7 16/16/7
f 15/15/7 14/14/7 17/17/7
usemtl __Metal_Aluminum_Anodized__texture_png
f 20/20/7 19/19/7 18/18/7
f 22/22/7 21/21/7 19/19/7
f 18/18/7 19/19/7 21/21/7
f 23/23/7 18/18/7 21/21/7
f 24/24/7 23/23/7 21/21/7
usemtl __Concrete_Aggregate_Smoke__Concrete_Aggregate_Smoke_jpg
f 26/26/6 25/25/6 20/20/6
f 25/25/6 28/28/6 27/27/6
f 28/28/6 25/25/6 26/26/6
f 28/28/6 26/26/6 29/29/6
f 28/28/6 29/29/6 30/30/6
f 17/17/8 32/32/8 31/31/8
f 33/33/8 31/31/8 32/32/8
f 34/34/8 31/31/8 33/33/8
f 35/35/8 31/31/8 34/34/8
f 31/31/9 32/32/9 17/17/9
f 32/32/9 31/31/9 33/33/9
f 33/33/9 31/31/9 34/34/9
f 34/34/9 31/31/9 35/35/9