#Exported from google sketchup
mtllib platform2.mtl
v 939.481215 255.260000 0.000000
v 0.000000 255.260000 110.000000
v 0.000000 255.260000 0.000000
v 190.000000 255.260000 110.000000
v 939.481215 255.260000 110.000000
v 190.000000 255.260000 110.000000
v 215.000000 255.260000 135.000000
v 190.000000 255.260000 166.401460
v 939.481215 255.260000 110.000000
v 190.000000 255.260000 760.000001
v 1764.480002 255.260000 135.000000
v 1724.413463 255.260000 110.000000
v 1789.481216 255.260000 110.000000
v 1764.481216 255.260000 135.000000
v 1764.481216 255.260000 735.000001
v 215.000000 255.260000 735.000001
v 382.346094 255.260000 760.000001
v 215.000000 255.260000 371.500855
v 215.000000 255.260000 150.000000
v 215.000000 255.260000 608.001710
v 215.000000 255.260000 720.000001
v 1764.480002 255.260000 735.000001
v 1789.481216 255.260000 760.000001
v 1789.481216 255.260000 518.417166
v 1789.481216 255.260000 639.208583
v 1789.481216 255.260000 0.000000
v 0.000000 0.000000 0.000000
v 1789.481216 0.000000 0.000000
v 0.000000 255.260000 0.000000
v 939.481215 255.260000 0.000000
v 1764.480002 255.260000 720.000001
v 215.000000 255.260000 608.001710
v 215.000000 255.260000 720.000001
v 1764.481216 255.260000 735.000001
v 1764.480002 255.260000 735.000001
v 1764.480002 255.260000 150.000000
v 1764.480002 255.260000 135.000000
v 1764.481216 255.260000 135.000000
v 215.000000 255.260000 150.000000
v 215.000000 255.260000 371.500855
v 1789.481216 0.000000 870.000001
v 1789.481216 255.260000 0.000000
v 1789.481216 0.000000 0.000000
v 1789.481216 255.260000 110.000000
v 1789.481216 255.260000 518.417166
v 1789.481216 255.260000 639.208583
v 1789.481216 255.260000 760.000001
v 1789.481216 255.260000 870.000001
v 1764.480002 255.260000 735.000001
v 215.000000 255.260000 720.000001
v 215.000000 255.260000 735.000001
v 1764.480002 255.260000 720.000001
v 215.000000 255.260000 735.000001
v 215.000000 255.260000 720.000001
v 1764.480002 255.260000 735.000001
v 0.000000 255.260000 870.000001
v 1789.481216 0.000000 870.000001
v 0.000000 0.000000 870.000001
v 1789.481216 255.260000 870.000001
v 190.000000 255.260000 870.000001
v 388.281080 255.260000 870.000001
v 0.000000 255.260000 110.000000
v 0.000000 0.000000 0.000000
v 0.000000 255.260000 0.000000
v 0.000000 0.000000 870.000001
v 0.000000 255.260000 418.517729
v 0.000000 255.260000 870.000001
v 1764.480002 255.260000 150.000000
v 215.000000 255.260000 135.000000
v 215.000000 255.260000 150.000000
v 1764.480002 255.260000 135.000000
v 215.000000 255.260000 150.000000
v 215.000000 255.260000 135.000000
v 1764.480002 255.260000 150.000000
v 190.000000 255.260000 110.000000
v 0.000000 255.260000 418.517729
v 0.000000 255.260000 110.000000
v 190.000000 255.260000 870.000001
v 0.000000 255.260000 870.000001
v 190.000000 255.260000 166.401460
v 190.000000 255.260000 760.000001
v 0.000000 255.260000 418.517729
v 190.000000 255.260000 110.000000
v 0.000000 255.260000 870.000001
v 190.000000 255.260000 870.000001
v 190.000000 255.260000 166.401460
v 190.000000 255.260000 760.000001
v 388.281080 255.260000 870.000001
v 190.000000 255.260000 760.000001
v 190.000000 255.260000 870.000001
v 382.346094 255.260000 760.000001
v 1789.481216 255.260000 760.000001
v 1789.481216 255.260000 870.000001
v 190.000000 255.260000 870.000001
v 190.000000 255.260000 760.000001
v 388.281080 255.260000 870.000001
v 382.346094 255.260000 760.000001
v 1789.481216 255.260000 870.000001
v 1789.481216 0.000000 870.000001
v 0.000000 0.000000 0.000000
v 0.000000 0.000000 870.000001
v 1789.481216 255.260000 0.000000
v 939.481215 255.260000 110.000000
v 939.481215 255.260000 0.000000
v 1724.413463 255.260000 110.000000
v 1789.481216 255.260000 110.000000
v 939.481215 255.260000 110.000000
v 1789.481216 255.260000 0.000000
v 1724.413463 255.260000 110.000000
v 1789.481216 255.260000 110.000000
# 110 elements
vt 3082.287449 -0.000000 0.0000
vt 0.000000 -360.892388 0.0000
vt 0.000000 -0.000000 0.0000
vt 623.359580 -360.892388 0.0000
vt 3082.287449 -360.892388 0.0000
vt 0.000000 -0.000000 0.0000
vt 82.020997 -82.020997 0.0000
vt 0.000000 -185.044161 0.0000
vt 2458.927869 -0.000000 0.0000
vt 0.000000 -2132.545932 0.0000
vt 5165.616798 -82.020997 0.0000
vt 5034.164900 -0.000000 0.0000
vt 5247.641780 -0.000000 0.0000
vt 5165.620782 -82.020997 0.0000
vt 5165.620782 -2050.524934 0.0000
vt 82.020997 -2050.524934 0.0000
vt 631.056739 -2132.545932 0.0000
vt 82.020997 -857.942436 0.0000
vt 82.020997 -131.233596 0.0000
vt 82.020997 -1633.863875 0.0000
vt 82.020997 -2001.312336 0.0000
vt 5165.616798 -2050.524934 0.0000
vt 5247.641780 -2132.545932 0.0000
vt 5247.641780 -1339.951330 0.0000
vt 5247.641780 -1736.248631 0.0000
vt 5871.001360 -837.467192 0.0000
vt 0.000000 -0.000000 0.0000
vt 5871.001360 -0.000000 0.0000
vt 0.000000 -837.467192 0.0000
vt 3082.287449 -837.467192 0.0000
vt 0.003984 -1919.291339 0.0000
vt 5083.599785 -1551.842877 0.0000
vt 5083.599785 -1919.291339 0.0000
vt 0.000000 -1968.503937 0.0000
vt 0.003984 -1968.503937 0.0000
vt 0.003984 -49.212598 0.0000
vt 0.003984 -0.000000 0.0000
vt 0.000000 -0.000000 0.0000
vt 5083.599785 -49.212598 0.0000
vt 5083.599785 -775.921439 0.0000
vt 2854.330709 -0.000000 0.0000
vt 0.000000 -837.467192 0.0000
vt 0.000000 -0.000000 0.0000
vt 360.892388 -837.467192 0.0000
vt 1700.843718 -837.467192 0.0000
vt 2097.141019 -837.467192 0.0000
vt 2493.438320 -837.467192 0.0000
vt 2854.330709 -837.467192 0.0000
vt 0.000000 -49.212598 0.0000
vt 5083.595801 -0.000000 0.0000
vt 5083.595801 -49.212598 0.0000
vt 0.000000 -0.000000 0.0000
vt 2541.797900 -24.606299 0.0000
vt 2541.797900 -0.000000 0.0000
vt 0.000000 -24.606299 0.0000
vt 5871.001360 -837.467192 0.0000
vt 0.000000 -0.000000 0.0000
vt 5871.001360 -0.000000 0.0000
vt 0.000000 -837.467192 0.0000
vt 5247.641780 -837.467192 0.0000
vt 4597.113304 -837.467192 0.0000
vt 2493.438320 -837.467192 0.0000
vt 2854.330709 -0.000000 0.0000
vt 2854.330709 -837.467192 0.0000
vt 0.000000 -0.000000 0.0000
vt 1481.241047 -837.467192 0.0000
vt 0.000000 -837.467192 0.0000
vt 0.000000 -49.212598 0.0000
vt 5083.595801 -0.000000 0.0000
vt 5083.595801 -49.212598 0.0000
vt 0.000000 -0.000000 0.0000
vt 2541.797900 -24.606299 0.0000
vt 2541.797900 -0.000000 0.0000
vt 0.000000 -24.606299 0.0000
vt 287.704422 -0.000000 0.0000
vt 0.000000 -467.167972 0.0000
vt 0.000000 -0.000000 0.0000
vt 287.704422 -1150.817686 0.0000
vt 0.000000 -1150.817686 0.0000
vt 287.704422 -85.404997 0.0000
vt 287.704422 -984.251969 0.0000
vt 0.000000 -1012.197273 0.0000
vt 623.359580 -0.000000 0.0000
vt 0.000000 -2493.438320 0.0000
vt 623.359580 -2493.438320 0.0000
vt 623.359580 -185.044161 0.0000
vt 623.359580 -2132.545932 0.0000
vt 4597.113304 -360.892388 0.0000
vt 5247.641780 -0.000000 0.0000
vt 5247.641780 -360.892388 0.0000
vt 4616.585041 -0.000000 0.0000
vt 0.000000 -0.000000 0.0000
vt 0.000000 -360.892388 0.0000
vt 7871.462670 -270.669291 0.0000
vt 7871.462670 -0.000000 0.0000
vt 6895.669956 -270.669291 0.0000
vt 6924.877562 -0.000000 0.0000
vt 0.000000 -270.669291 0.0000
vt 0.000000 -2854.330709 0.0000
vt 5871.001360 -0.000000 0.0000
vt 5871.001360 -2854.330709 0.0000
vt 697.178478 -0.000000 0.0000
vt 0.000000 -45.111549 0.0000
vt 0.000000 -0.000000 0.0000
vt 643.809258 -45.111549 0.0000
vt 697.178478 -45.111549 0.0000
vt 0.000000 -360.892388 0.0000
vt 2788.713911 -0.000000 0.0000
vt 2575.237031 -360.892388 0.0000
vt 2788.713911 -360.892388 0.0000
# 110 elements
vn 0.000000 1.000000 0.000000
vn 0.000000 -1.000000 0.000000
vn 0.000000 0.000000 -1.000000
vn 0.000000 0.000000 1.000000
vn 1.000000 0.000000 0.000000
vn -1.000000 0.000000 0.000000
vn -0.000000 -0.000000 -1.000000
vn -1.000000 0.000000 -0.000000
vn 1.000000 -0.000000 0.000000
vn -0.000000 -1.000000 -0.000000
# 10 elements
#  132 faces
usemtl __Concrete_Aggregate_Smoke__Concrete_Aggregate_Smoke_jpg
f 3/3/1 2/2/1 1/1/1
f 4/4/1 1/1/1 2/2/1
f 5/5/1 1/1/1 4/4/1
f 1/1/2 2/2/2 3/3/2
f 2/2/2 1/1/2 4/4/2
f 4/4/2 1/1/2 5/5/2
usemtl __Asphalt_New__Asphalt_New_jpg
f 8/8/1 7/7/1 6/6/1
f 9/9/1 6/6/1 7/7/1
f 10/10/1 7/7/1 8/8/1
f 11/11/1 9/9/1 7/7/1
f 12/12/1 9/9/1 11/11/1
f 13/13/1 12/12/1 11/11/1
f 14/14/1 13/13/1 11/11/1
f 15/15/1 13/13/1 14/14/1
f 17/17/1 16/16/1 10/10/1
f 18/18/1 10/10/1 16/16/1
f 7/7/1 10/10/1 18/18/1
f 19/19/1 7/7/1 18/18/1
f 20/20/1 18/18/1 16/16/1
f 21/21/1 20/20/1 16/16/1
f 22/22/1 16/16/1 17/17/1
f 23/23/1 22/22/1 17/17/1
f 15/15/1 22/22/1 23/23/1
f 13/13/1 15/15/1 23/23/1
f 24/24/1 13/13/1 23/23/1
f 25/25/1 24/24/1 23/23/1
usemtl __Concrete_Aggregate_Smoke__Concrete_Aggregate_Smoke_jpg
f 6/6/2 7/7/2 8/8/2
f 7/7/2 6/6/2 9/9/2
f 8/8/2 7/7/2 10/10/2
f 7/7/2 9/9/2 11/11/2
f 11/11/2 9/9/2 12/12/2
f 11/11/2 12/12/2 13/13/2
f 11/11/2 13/13/2 14/14/2
f 14/14/2 13/13/2 15/15/2
f 10/10/2 16/16/2 17/17/2
f 16/16/2 10/10/2 18/18/2
f 18/18/2 10/10/2 7/7/2
f 18/18/2 7/7/2 19/19/2
f 16/16/2 18/18/2 20/20/2
f 16/16/2 20/20/2 21/21/2
f 17/17/2 16/16/2 22/22/2
f 17/17/2 22/22/2 23/23/2
f 23/23/2 22/22/2 15/15/2
f 23/23/2 15/15/2 13/13/2
f 23/23/2 13/13/2 24/24/2
f 23/23/2 24/24/2 25/25/2
f 28/28/3 27/27/3 26/26/3
f 29/29/3 26/26/3 27/27/3
f 30/30/3 26/26/3 29/29/3
f 26/26/4 27/27/4 28/28/4
f 27/27/4 26/26/4 29/29/4
f 29/29/4 26/26/4 30/30/4
f 33/33/2 32/32/2 31/31/2
f 35/35/2 31/31/2 34/34/2
f 36/36/2 34/34/2 31/31/2
f 37/37/2 34/34/2 36/36/2
f 38/38/2 34/34/2 37/37/2
f 40/40/2 39/39/2 32/32/2
f 36/36/2 32/32/2 39/39/2
f 31/31/2 32/32/2 36/36/2
f 31/31/1 32/32/1 33/33/1
f 34/34/1 31/31/1 35/35/1
f 31/31/1 34/34/1 36/36/1
f 36/36/1 34/34/1 37/37/1
f 37/37/1 34/34/1 38/38/1
f 32/32/1 39/39/1 40/40/1
f 39/39/1 32/32/1 36/36/1
f 36/36/1 32/32/1 31/31/1
f 43/43/5 42/42/5 41/41/5
f 44/44/5 41/41/5 42/42/5
f 45/45/5 41/41/5 44/44/5
f 46/46/5 41/41/5 45/45/5
f 47/47/5 41/41/5 46/46/5
f 48/48/5 41/41/5 47/47/5
f 41/41/6 42/42/6 43/43/6
f 42/42/6 41/41/6 44/44/6
f 44/44/6 41/41/6 45/45/6
f 45/45/6 41/41/6 46/46/6
f 46/46/6 41/41/6 47/47/6
f 47/47/6 41/41/6 48/48/6
f 51/51/2 50/50/2 49/49/2
f 52/52/2 49/49/2 50/50/2
usemtl __Metal_Steel_Textured__Metal_Steel_Textured_jpg
f 55/55/1 54/54/1 53/53/1
f 54/54/1 55/55/1 52/52/1
usemtl __Concrete_Aggregate_Smoke__Concrete_Aggregate_Smoke_jpg
f 58/58/4 57/57/4 56/56/4
f 59/59/4 56/56/4 57/57/4
f 60/60/4 56/56/4 59/59/4
f 61/61/4 60/60/4 59/59/4
f 56/56/7 57/57/7 58/58/7
f 57/57/7 56/56/7 59/59/7
f 59/59/7 56/56/7 60/60/7
f 59/59/7 60/60/7 61/61/7
f 64/64/8 63/63/8 62/62/8
f 65/65/8 62/62/8 63/63/8
f 66/66/8 62/62/8 65/65/8
f 67/67/8 66/66/8 65/65/8
f 62/62/9 63/63/9 64/64/9
f 63/63/9 62/62/9 65/65/9
f 65/65/9 62/62/9 66/66/9
f 65/65/9 66/66/9 67/67/9
f 70/70/2 69/69/2 68/68/2
f 71/71/2 68/68/2 69/69/2
usemtl __Metal_Steel_Textured__Metal_Steel_Textured_jpg
f 74/74/1 73/73/1 72/72/1
f 73/73/1 74/74/1 71/71/1
usemtl __Concrete_Scored_Jointless__Concrete_Scored_Jointless_jpg
f 77/77/1 76/76/1 75/75/1
f 79/79/1 78/78/1 76/76/1
f 75/75/1 76/76/1 78/78/1
f 80/80/1 75/75/1 78/78/1
f 81/81/1 80/80/1 78/78/1
usemtl __Concrete_Aggregate_Smoke__Concrete_Aggregate_Smoke_jpg
f 83/83/10 82/82/10 77/77/10
f 82/82/10 85/85/10 84/84/10
f 85/85/10 82/82/10 83/83/10
f 85/85/10 83/83/10 86/86/10
f 85/85/10 86/86/10 87/87/10
f 90/90/2 89/89/2 88/88/2
f 91/91/2 88/88/2 89/89/2
f 92/92/2 88/88/2 91/91/2
f 93/93/2 88/88/2 92/92/2
usemtl __Asphalt_Stamped_Brick__Asphalt_Stamped_Brick_jpg
f 96/96/1 95/95/1 94/94/1
f 95/95/1 96/96/1 97/97/1
f 97/97/1 96/96/1 92/92/1
f 92/92/1 96/96/1 98/98/1
usemtl __Concrete_Aggregate_Smoke__Concrete_Aggregate_Smoke_jpg
f 101/101/2 100/100/2 99/99/2
f 43/43/2 99/99/2 100/100/2
f 99/99/1 100/100/1 101/101/1
f 100/100/1 99/99/1 43/43/1
usemtl __Concrete_Form_4x8__Concrete_Form_4x8_jpg
f 104/104/1 103/103/1 102/102/1
f 105/105/1 102/102/1 103/103/1
f 106/106/1 102/102/1 105/105/1
usemtl __Concrete_Aggregate_Smoke__Concrete_Aggregate_Smoke_jpg
f 108/108/2 107/107/2 104/104/2
f 107/107/2 108/108/2 109/109/2
f 109/109/2 108/108/2 110/110/2