# Blender v2.69 (sub 0) OBJ File: ''
# www.blender.org
mtllib storageCrane.mtl
o Crane_Cube.003
v -1.460142 18.202868 3.257237
v -1.460142 18.202869 -3.596298
v -1.460142 16.812408 3.257237
v 1.460142 18.202869 -3.596298
v -1.460142 16.812410 -3.596298
v 1.460142 18.202868 3.257237
v 1.460142 16.812410 -3.596298
v 1.460142 16.812408 3.257237
v -1.460142 18.156418 6.713952
v -1.460142 18.156427 -6.739421
v -1.460142 18.954889 6.713953
v 1.460142 18.156427 -6.739421
v -1.460142 18.954897 -6.739420
v 1.460142 18.156418 6.713952
v 1.460142 18.954897 -6.739420
v 1.460142 18.954889 6.713953
v -1.420285 19.732056 -6.287997
v -1.420285 19.732056 -7.532568
v -1.460142 -0.267940 -6.222857
v 1.500000 19.732056 -7.532568
v -1.460142 -0.267940 -7.467428
v 1.500000 19.732056 -6.287997
v 1.460142 -0.267940 -6.222857
v 1.420285 19.732056 -6.287997
v 1.460142 -0.267940 -6.222857
v 1.420285 19.732056 -7.532568
v 1.460142 -0.267940 -7.467428
v -1.500000 19.732056 -7.532568
v -1.460142 -0.267940 -7.467428
v -1.460142 -0.267940 -6.222857
v -1.500000 19.732056 -6.287997
v -1.460142 16.919422 0.772040
v -1.460142 16.919422 -0.772032
v -1.460142 16.153933 0.772039
v 1.460142 16.919422 -0.772032
v -1.460142 16.153933 -0.772032
v 1.460142 16.919422 0.772040
v 1.460142 16.153933 -0.772032
v 1.460142 16.153933 0.772039
v -1.137609 16.232868 0.484831
v -1.137609 16.232868 -0.484824
v -0.345941 15.809214 0.147438
v 1.137609 16.232868 -0.484824
v -0.345941 15.809214 -0.147430
v 1.137609 16.232868 0.484831
v 0.345941 15.809214 -0.147430
v 0.345941 15.809214 0.147438
v -1.420285 19.732048 7.402288
v -1.420285 19.732048 6.157717
v -1.460142 -0.267947 7.467428
v 1.500000 19.732048 6.157717
v -1.460142 -0.267947 6.222857
v 1.500000 19.732048 7.402288
v 1.460142 -0.267947 7.467428
v 1.420285 19.732048 7.402288
v 1.460142 -0.267947 7.467428
v 1.420285 19.732048 6.157717
v 1.460142 -0.267947 6.222857
v -1.500000 19.732048 6.157717
v -1.460142 -0.267947 6.222857
v -1.460142 -0.267947 7.467428
v -1.500000 19.732048 7.402288
v 1.460142 -0.267940 -7.467428
v 1.460142 -0.267947 6.222857
vn -1.000000 -0.000000 0.000000
vn 0.000000 0.000000 -1.000000
vn 1.000000 0.000000 0.000000
vn 0.000000 -0.000000 1.000000
vn 0.000000 -1.000000 0.000000
vn 0.000000 1.000000 0.000001
vn 0.000000 -0.000001 1.000000
vn 0.000000 0.000001 -1.000000
vn 0.000000 -1.000000 -0.000001
vn -0.999998 0.001993 0.000000
vn 0.000000 -0.003257 -0.999995
vn 0.999998 -0.001993 0.000000
vn 0.000000 0.003257 0.999995
vn 0.000000 1.000000 0.000000
vn 0.999998 0.001993 0.000000
vn -0.999998 -0.001993 0.000000
vn -0.471829 -0.881690 0.000000
vn 0.000000 -0.622973 -0.782243
vn 0.471829 -0.881690 0.000000
vn 0.000000 -0.622973 0.782243
vn 0.000000 -0.622963 -0.782251
vn 0.000000 -0.622963 0.782251
usemtl None.001
s off
f 1//1 2//1 3//1
f 2//2 4//2 5//2
f 4//3 6//3 7//3
f 6//4 1//4 8//4
f 3//5 5//5 8//5
f 4//6 1//6 6//6
f 9//3 10//3 11//3
f 10//7 12//7 13//7
f 12//1 14//1 15//1
f 14//8 9//8 16//8
f 11//9 13//9 16//9
f 14//6 12//6 9//6
f 17//10 18//10 19//10
f 18//11 20//11 21//11
f 20//12 22//12 23//12
f 22//13 17//13 19//13
f 19//5 21//5 23//5
f 22//14 20//14 17//14
f 24//15 25//15 26//15
f 26//11 27//11 28//11
f 28//16 29//16 30//16
f 31//13 30//13 25//13
f 25//5 30//5 27//5
f 31//14 24//14 28//14
f 32//1 33//1 34//1
f 33//2 35//2 36//2
f 35//3 37//3 38//3
f 37//4 32//4 39//4
f 34//5 36//5 39//5
f 37//14 35//14 32//14
f 40//17 41//17 42//17
f 41//18 43//18 44//18
f 43//19 45//19 46//19
f 45//20 40//20 47//20
f 42//5 44//5 47//5
f 48//10 49//10 50//10
f 49//11 51//11 52//11
f 51//12 53//12 54//12
f 53//13 48//13 50//13
f 50//5 52//5 54//5
f 53//14 51//14 48//14
f 55//15 56//15 57//15
f 57//11 58//11 59//11
f 59//16 60//16 61//16
f 62//13 61//13 56//13
f 56//5 61//5 58//5
f 62//14 55//14 59//14
f 2//1 5//1 3//1
f 4//2 7//2 5//2
f 6//3 8//3 7//3
f 1//4 3//4 8//4
f 5//9 7//9 8//9
f 2//14 1//14 4//14
f 10//3 13//3 11//3
f 12//7 15//7 13//7
f 14//1 16//1 15//1
f 9//8 11//8 16//8
f 13//9 15//9 16//9
f 12//6 10//6 9//6
f 18//10 21//10 19//10
f 20//11 63//11 21//11
f 63//12 20//12 23//12
f 23//13 22//13 19//13
f 21//5 63//5 23//5
f 20//14 18//14 17//14
f 25//15 27//15 26//15
f 27//11 29//11 28//11
f 31//16 28//16 30//16
f 24//13 31//13 25//13
f 30//5 29//5 27//5
f 24//14 26//14 28//14
f 33//1 36//1 34//1
f 35//2 38//2 36//2
f 37//3 39//3 38//3
f 32//4 34//4 39//4
f 36//5 38//5 39//5
f 35//14 33//14 32//14
f 41//17 44//17 42//17
f 43//21 46//21 44//21
f 45//19 47//19 46//19
f 40//22 42//22 47//22
f 44//5 46//5 47//5
f 49//10 52//10 50//10
f 51//11 64//11 52//11
f 64//12 51//12 54//12
f 54//13 53//13 50//13
f 52//5 64//5 54//5
f 51//14 49//14 48//14
f 56//15 58//15 57//15
f 58//11 60//11 59//11
f 62//16 59//16 61//16
f 55//13 62//13 56//13
f 61//5 60//5 58//5
f 55//14 57//14 59//14
