# Blender v2.68 (sub 0) OBJ File: ''
# www.blender.org
o Hook_Cube.006
v -5.259323 2.457276 0.997659
v -6.202025 2.457276 0.997660
v -5.259321 2.457276 1.249999
v -6.202025 1.704898 0.997660
v -6.202023 2.457276 1.250000
v -5.259323 1.704898 0.997658
v -6.202023 1.704898 1.201850
v -5.259321 1.704898 1.201850
v -5.259324 2.457276 -0.997654
v -5.259324 2.457276 -1.249995
v -6.202027 2.457276 -0.997653
v -6.202027 2.457276 -1.249994
v -6.202027 1.704898 -0.997653
v -6.202027 1.704898 -1.201845
v -5.259324 1.704898 -0.997654
v -5.259324 1.704898 -1.201845
v 5.259324 2.457276 0.997655
v 5.259324 2.457276 1.249996
v 6.202027 2.457276 0.997654
v 6.202027 2.457276 1.249995
v 6.202027 1.704898 0.997654
v 6.202027 1.704898 1.201846
v 5.259324 1.704898 0.997655
v 5.259324 1.704898 1.201846
v 5.259323 2.457276 -0.997658
v 6.202025 2.457276 -0.997659
v 5.259321 2.457276 -1.249998
v 6.202025 1.704898 -0.997659
v 6.202023 2.457276 -1.250000
v 5.259323 1.704898 -0.997658
v 6.202023 1.704898 -1.201850
v 5.259321 1.704898 -1.201850
v 6.500000 2.417674 1.105617
v -6.499999 2.417674 1.105623
v 6.500000 2.163111 1.105617
v -6.500000 2.417674 -1.105616
v -6.499999 2.163111 1.105623
v 6.499999 2.417674 -1.105622
v -6.500000 2.163112 -1.105616
v 6.499999 2.163112 -1.105622
v 0.693371 2.519226 0.435865
v -0.693371 2.519226 0.435865
v 1.108158 2.313958 0.696605
v -0.693371 2.519226 -0.435864
v -1.108156 2.313958 0.696606
v 0.693371 2.519226 -0.435864
v -1.108158 2.313958 -0.696604
v 1.108156 2.313958 -0.696606
v -0.193155 2.704898 -0.121420
v 0.193155 2.704898 -0.121420
v -0.251568 2.505697 -0.158140
v 0.193155 2.704898 0.121421
v 0.251568 2.505697 -0.158140
v -0.193155 2.704898 0.121421
v 0.251568 2.505697 0.158140
v -0.251568 2.505697 0.158140
vn 0.000000 1.000000 0.000000
vn -1.000000 -0.000000 0.000008
vn -0.000000 -1.000000 -0.000001
vn 1.000000 0.000000 -0.000008
vn 0.000001 -0.063865 0.997959
vn -0.000002 0.000002 -1.000000
vn -1.000000 0.000000 0.000000
vn 1.000000 0.000000 0.000000
vn -0.000001 -0.063866 -0.997958
vn 0.000001 -0.000000 1.000000
vn 0.000001 -0.063867 0.997958
vn -0.000001 0.000000 -1.000000
vn -0.000002 -0.063864 -0.997959
vn 0.000000 0.000000 1.000000
vn -0.000000 0.000000 -1.000000
vn -0.000000 0.785731 0.618569
vn -0.443538 0.896256 0.000000
vn 0.000000 0.785731 -0.618568
vn 0.443538 0.896256 0.000000
vn 0.000000 0.181282 -0.983431
vn 0.959594 0.281388 0.000000
vn -0.000000 0.181277 0.983432
vn -0.959594 0.281388 0.000000
vn -1.000000 -0.000001 0.000009
vn 1.000000 0.000001 -0.000009
vn 0.000000 -0.063867 0.997958
vn 0.000000 -0.063865 -0.997959
vn 0.000000 -0.063865 0.997959
vn 1.000000 -0.000001 -0.000009
vn -1.000000 0.000001 0.000009
vn 0.000000 -0.063866 -0.997958
vn 0.000000 0.785732 0.618567
vn -0.443536 0.896256 0.000001
vn -0.000001 0.785733 -0.618566
vn 0.443536 0.896256 -0.000001
s off
f 1//1 2//1 3//1
f 2//2 4//2 5//2
f 4//3 6//3 7//3
f 6//4 1//4 3//4
f 3//5 5//5 8//5
f 4//6 1//6 6//6
f 9//1 10//1 11//1
f 11//7 12//7 13//7
f 13//3 14//3 15//3
f 15//8 16//8 10//8
f 10//9 16//9 12//9
f 15//10 9//10 13//10
f 17//1 18//1 19//1
f 19//8 20//8 21//8
f 21//3 22//3 23//3
f 23//7 24//7 18//7
f 18//11 24//11 20//11
f 23//12 17//12 21//12
f 25//1 26//1 27//1
f 26//4 28//4 29//4
f 28//3 30//3 31//3
f 30//2 25//2 27//2
f 27//13 29//13 32//13
f 30//10 28//10 25//10
f 33//14 34//14 35//14
f 34//7 36//7 37//7
f 36//15 38//15 39//15
f 38//8 33//8 40//8
f 35//3 37//3 40//3
f 38//1 36//1 33//1
f 41//16 42//16 43//16
f 42//17 44//17 45//17
f 44//18 46//18 47//18
f 46//19 41//19 48//19
f 49//20 50//20 51//20
f 41//1 46//1 42//1
f 50//1 49//1 52//1
f 50//21 52//21 53//21
f 52//22 54//22 55//22
f 54//23 49//23 56//23
f 2//1 5//1 3//1
f 4//24 7//24 5//24
f 6//3 8//3 7//3
f 8//25 6//25 3//25
f 5//26 7//26 8//26
f 2//12 1//12 4//12
f 10//1 12//1 11//1
f 12//7 14//7 13//7
f 14//3 16//3 15//3
f 9//8 15//8 10//8
f 16//27 14//27 12//27
f 9//10 11//10 13//10
f 18//1 20//1 19//1
f 20//8 22//8 21//8
f 22//3 24//3 23//3
f 17//7 23//7 18//7
f 24//28 22//28 20//28
f 17//12 19//12 21//12
f 26//1 29//1 27//1
f 28//29 31//29 29//29
f 30//3 32//3 31//3
f 32//30 30//30 27//30
f 29//31 31//31 32//31
f 28//10 26//10 25//10
f 34//14 37//14 35//14
f 36//7 39//7 37//7
f 38//15 40//15 39//15
f 33//8 35//8 40//8
f 37//3 39//3 40//3
f 36//1 34//1 33//1
f 42//32 45//32 43//32
f 44//33 47//33 45//33
f 46//34 48//34 47//34
f 41//35 43//35 48//35
f 50//20 53//20 51//20
f 46//1 44//1 42//1
f 49//1 54//1 52//1
f 52//21 55//21 53//21
f 54//22 56//22 55//22
f 49//23 51//23 56//23
